<svg xmlns="http://www.w3.org/2000/svg" xmlns:xlink="http://www.w3.org/1999/xlink" zoomAndPan="magnify" preserveAspectRatio="xMidYMid meet" version="1.0" viewBox="113.07 136.95 188.92 79.85"><defs><g/></defs><g fill="#9cf6fb" fill-opacity="0.4314"><g transform="translate(115.372453, 216.785729)"><g><path d="M 24.855469 -25.230469 L 8.144531 -25.230469 L 8.144531 -34.863281 L 20.226562 -34.863281 L 20.226562 -42.582031 L 0.585938 -42.582031 C 0.265625 -42.582031 0 -42.316406 0 -42.101562 L 0 -0.480469 C 0 -0.265625 0.265625 0 0.585938 0 L 8.144531 0 L 8.144531 -17.511719 L 24.855469 -17.511719 C 25.175781 -17.511719 25.441406 -17.777344 25.441406 -17.992188 L 25.441406 -24.75 C 25.441406 -25.015625 25.175781 -25.230469 24.855469 -25.230469 Z M 24.855469 -25.230469 "/></g></g></g><g fill="#9cf6fb" fill-opacity="0.4314"><g transform="translate(142.092231, 216.785729)"><g><path d="M 24.484375 -21.183594 C 24.484375 -23.421875 22.726562 -25.230469 20.492188 -25.230469 C 18.257812 -25.230469 16.5 -23.421875 16.5 -21.183594 C 16.5 -19.003906 18.257812 -17.191406 20.492188 -17.191406 C 22.726562 -17.191406 24.484375 -19.003906 24.484375 -21.183594 Z M 40.984375 -21.34375 C 40.984375 -31.9375 34.117188 -42.582031 20.546875 -42.582031 C 6.761719 -42.582031 0 -31.9375 0 -21.34375 C 0 -10.699219 6.761719 0 20.546875 0 C 34.117188 0 40.984375 -10.699219 40.984375 -21.34375 Z M 33 -21.183594 C 33 -14.316406 28.796875 -7.453125 20.546875 -7.453125 C 12.1875 -7.453125 8.039062 -14.316406 8.039062 -21.183594 C 8.039062 -28.15625 12.1875 -35.078125 20.546875 -35.078125 C 28.796875 -35.078125 33 -28.15625 33 -21.183594 Z M 33 -21.183594 "/></g></g></g><g fill="#9cf6fb" fill-opacity="0.4314"><g transform="translate(185.099365, 216.785729)"><g><path d="M 29.0625 -0.691406 C 26.402344 -6.601562 23.527344 -12.457031 20.863281 -18.46875 C 25.125 -20.011719 28.691406 -23.421875 28.691406 -29.914062 C 28.691406 -42.476562 16.714844 -42.582031 14.316406 -42.582031 L 0.53125 -42.582031 C 0.265625 -42.582031 0 -42.316406 0 -42.101562 L 0 -34.863281 L 14.316406 -34.863281 C 15.59375 -34.863281 20.597656 -34.597656 20.597656 -29.914062 C 20.597656 -25.230469 16.074219 -25.015625 14.316406 -25.015625 L 0 -25.015625 L 0 -0.480469 C 0 -0.265625 0.265625 0 0.53125 0 L 7.503906 0 C 7.824219 0 8.089844 -0.265625 8.089844 -0.480469 L 8.089844 -17.191406 L 12.667969 -17.191406 L 20.4375 -0.320312 C 20.492188 -0.160156 20.8125 0 20.972656 0 L 28.582031 0 C 29.007812 0 29.222656 -0.320312 29.0625 -0.691406 Z M 29.0625 -0.691406 "/></g></g></g><g fill="#9cf6fb" fill-opacity="0.4314"><g transform="translate(215.704687, 216.785729)"><g><path d="M 38.109375 -10.273438 L 46.203125 -10.273438 L 46.203125 -42.101562 C 46.203125 -42.316406 45.988281 -42.582031 45.617188 -42.582031 L 38.589844 -42.582031 C 38.378906 -42.582031 38.109375 -42.421875 38.003906 -42.261719 L 23.472656 -11.070312 L 8.195312 -42.261719 C 8.144531 -42.421875 7.824219 -42.582031 7.664062 -42.582031 L 0.53125 -42.582031 C 0.160156 -42.582031 0 -42.316406 0 -42.101562 L 0 -0.480469 C 0 -0.265625 0.160156 0 0.53125 0 L 7.558594 0 C 7.878906 0 8.144531 -0.265625 8.144531 -0.480469 L 8.144531 -24.378906 L 19.695312 -2.023438 C 19.746094 -1.863281 20.066406 -1.703125 20.226562 -1.703125 L 26.773438 -1.703125 C 26.933594 -1.703125 27.199219 -1.863281 27.253906 -2.023438 L 38.109375 -23.792969 Z M 38.109375 -10.273438 "/></g></g></g><g fill="#394f8a" fill-opacity="1"><g transform="translate(113.067118, 214.480385)"><g><path d="M 24.855469 -25.230469 L 8.144531 -25.230469 L 8.144531 -34.863281 L 20.226562 -34.863281 L 20.226562 -42.582031 L 0.585938 -42.582031 C 0.265625 -42.582031 0 -42.316406 0 -42.101562 L 0 -0.480469 C 0 -0.265625 0.265625 0 0.585938 0 L 8.144531 0 L 8.144531 -17.511719 L 24.855469 -17.511719 C 25.175781 -17.511719 25.441406 -17.777344 25.441406 -17.992188 L 25.441406 -24.75 C 25.441406 -25.015625 25.175781 -25.230469 24.855469 -25.230469 Z M 24.855469 -25.230469 "/></g></g></g><g fill="#394f8a" fill-opacity="1"><g transform="translate(139.786896, 214.480385)"><g><path d="M 24.484375 -21.183594 C 24.484375 -23.421875 22.726562 -25.230469 20.492188 -25.230469 C 18.257812 -25.230469 16.5 -23.421875 16.5 -21.183594 C 16.5 -19.003906 18.257812 -17.191406 20.492188 -17.191406 C 22.726562 -17.191406 24.484375 -19.003906 24.484375 -21.183594 Z M 40.984375 -21.34375 C 40.984375 -31.9375 34.117188 -42.582031 20.546875 -42.582031 C 6.761719 -42.582031 0 -31.9375 0 -21.34375 C 0 -10.699219 6.761719 0 20.546875 0 C 34.117188 0 40.984375 -10.699219 40.984375 -21.34375 Z M 33 -21.183594 C 33 -14.316406 28.796875 -7.453125 20.546875 -7.453125 C 12.1875 -7.453125 8.039062 -14.316406 8.039062 -21.183594 C 8.039062 -28.15625 12.1875 -35.078125 20.546875 -35.078125 C 28.796875 -35.078125 33 -28.15625 33 -21.183594 Z M 33 -21.183594 "/></g></g></g><g fill="#394f8a" fill-opacity="1"><g transform="translate(182.794031, 214.480385)"><g><path d="M 29.0625 -0.691406 C 26.402344 -6.601562 23.527344 -12.457031 20.863281 -18.46875 C 25.125 -20.011719 28.691406 -23.421875 28.691406 -29.914062 C 28.691406 -42.476562 16.714844 -42.582031 14.316406 -42.582031 L 0.53125 -42.582031 C 0.265625 -42.582031 0 -42.316406 0 -42.101562 L 0 -34.863281 L 14.316406 -34.863281 C 15.59375 -34.863281 20.597656 -34.597656 20.597656 -29.914062 C 20.597656 -25.230469 16.074219 -25.015625 14.316406 -25.015625 L 0 -25.015625 L 0 -0.480469 C 0 -0.265625 0.265625 0 0.53125 0 L 7.503906 0 C 7.824219 0 8.089844 -0.265625 8.089844 -0.480469 L 8.089844 -17.191406 L 12.667969 -17.191406 L 20.4375 -0.320312 C 20.492188 -0.160156 20.8125 0 20.972656 0 L 28.582031 0 C 29.007812 0 29.222656 -0.320312 29.0625 -0.691406 Z M 29.0625 -0.691406 "/></g></g></g><g fill="#394f8a" fill-opacity="1"><g transform="translate(213.399352, 214.480385)"><g><path d="M 38.109375 -10.273438 L 46.203125 -10.273438 L 46.203125 -42.101562 C 46.203125 -42.316406 45.988281 -42.582031 45.617188 -42.582031 L 38.589844 -42.582031 C 38.378906 -42.582031 38.109375 -42.421875 38.003906 -42.261719 L 23.472656 -11.070312 L 8.195312 -42.261719 C 8.144531 -42.421875 7.824219 -42.582031 7.664062 -42.582031 L 0.53125 -42.582031 C 0.160156 -42.582031 0 -42.316406 0 -42.101562 L 0 -0.480469 C 0 -0.265625 0.160156 0 0.53125 0 L 7.558594 0 C 7.878906 0 8.144531 -0.265625 8.144531 -0.480469 L 8.144531 -24.378906 L 19.695312 -2.023438 C 19.746094 -1.863281 20.066406 -1.703125 20.226562 -1.703125 L 26.773438 -1.703125 C 26.933594 -1.703125 27.199219 -1.863281 27.253906 -2.023438 L 38.109375 -23.792969 Z M 38.109375 -10.273438 "/></g></g></g><g fill="#4a5fc1" fill-opacity="1"><g transform="translate(242.905488, 176.209301)"><g><path d="M -0.078125 -1.046875 L -8.90625 -0.4375 L -8.96875 -1.53125 L -1.15625 -2.078125 L -1.46875 -6.515625 L -0.453125 -6.578125 Z M -0.078125 -1.046875 "/></g></g></g><g fill="#4a5fc1" fill-opacity="1"><g transform="translate(242.58885, 169.042501)"><g><path d="M 0.125 -0.734375 L -0.875 -0.90625 L -0.671875 -1.96875 L -7.390625 -3.171875 L -7.59375 -2.109375 L -8.578125 -2.28125 L -8 -5.484375 L -7.015625 -5.3125 L -7.203125 -4.25 L -0.484375 -3.046875 L -0.296875 -4.109375 L 0.703125 -3.9375 Z M 0.125 -0.734375 "/></g></g></g><g fill="#4a5fc1" fill-opacity="1"><g transform="translate(243.427676, 163.887709)"><g><path d="M 0.4375 -0.953125 L -7.625 -4.59375 L -5.28125 -9.796875 L -4.359375 -9.390625 L -6.25 -5.1875 L -3.65625 -4.015625 L -2 -7.703125 L -1.078125 -7.28125 L -2.734375 -3.59375 L 0.890625 -1.953125 Z M 0.4375 -0.953125 "/></g></g></g><g fill="#4a5fc1" fill-opacity="1"><g transform="translate(246.47433, 157.319326)"><g><path d="M 1.796875 -2.109375 L -4.171875 -7.203125 L -5.875 -5.21875 L -6.640625 -5.859375 L -2.515625 -10.6875 L -1.75 -10.046875 L -3.453125 -8.046875 L 2.515625 -2.953125 Z M 1.796875 -2.109375 "/></g></g></g><g fill="#4a5fc1" fill-opacity="1"><g transform="translate(251.403061, 151.962063)"><g/></g></g><g fill="#4a5fc1" fill-opacity="1"><g transform="translate(253.951542, 149.826123)"><g><path d="M 2.515625 -1.203125 L -0.859375 -8.28125 L -3.234375 -7.140625 L -3.671875 -8.046875 L 2.046875 -10.78125 L 2.484375 -9.875 L 0.125 -8.75 L 3.5 -1.671875 Z M 2.515625 -1.203125 "/></g></g></g><g fill="#4a5fc1" fill-opacity="1"><g transform="translate(260.115608, 146.753112)"><g><path d="M 1.03125 -0.140625 L -0.15625 -8.90625 L 0.9375 -9.0625 L 1.4375 -5.390625 L 5.765625 -5.96875 L 5.265625 -9.640625 L 6.359375 -9.796875 L 7.546875 -1.03125 L 6.453125 -0.875 L 5.890625 -5 L 1.5625 -4.421875 L 2.125 -0.296875 Z M 1.03125 -0.140625 "/></g></g></g><g fill="#4a5fc1" fill-opacity="1"><g transform="translate(268.821142, 145.680558)"><g><path d="M 1.03125 0.203125 L 2.6875 -8.484375 L 8.40625 -7.40625 L 8.21875 -6.421875 L 3.578125 -7.296875 L 3.0625 -4.640625 L 7.21875 -3.859375 L 7.046875 -2.890625 L 2.890625 -3.671875 L 2.296875 -0.59375 L 6.9375 0.28125 L 6.75 1.28125 Z M 1.03125 0.203125 "/></g></g></g><g fill="#4a5fc1" fill-opacity="1"><g transform="translate(276.661049, 147.507896)"><g/></g></g><g fill="#4a5fc1" fill-opacity="1"><g transform="translate(279.705734, 148.482925)"><g><path d="M 0.671875 0.515625 L 6.09375 -6.46875 L 10.84375 -2.78125 L 11.09375 -0.921875 L 9.140625 1.578125 L 7.734375 1.765625 L 6.75 5.234375 L 4.96875 3.84375 L 5.890625 0.75 L 4.28125 -0.5 L 2.4375 1.890625 Z M 5.328125 -1.84375 L 7.328125 -0.296875 L 7.90625 -0.375 L 8.875 -1.625 L 8.8125 -2.203125 L 6.8125 -3.75 Z M 5.328125 -1.84375 "/></g></g></g><g fill="#4a5fc1" fill-opacity="1"><g transform="translate(286.756287, 154.342507)"><g><path d="M 0.28125 0.390625 L 1.65625 -0.59375 L 2.234375 0.203125 L 6.640625 -3.015625 L 6.078125 -3.796875 L 7.453125 -4.78125 L 9.84375 -1.46875 L 8.46875 -0.484375 L 7.90625 -1.265625 L 3.453125 1.90625 L 4.046875 2.71875 L 2.671875 3.703125 Z M 0.28125 0.390625 "/></g></g></g><g fill="#4a5fc1" fill-opacity="1"><g transform="translate(290.13283, 158.476213)"><g><path d="M 0.609375 1.84375 L 1.453125 0.140625 L 7.3125 -1.828125 L 9 -0.96875 L 10.578125 3.703125 L 9.734375 5.390625 L 8.1875 5.921875 L 7.5 3.84375 L 8.28125 3.59375 L 8.546875 3.03125 L 7.8125 0.84375 L 7.28125 0.578125 L 2.9375 2.03125 L 2.65625 2.5625 L 3.25 4.34375 L 4.578125 5.125 L 4.875 5.015625 L 4.359375 3.46875 L 5.984375 2.9375 L 7.140625 6.40625 L 2.640625 7.90625 L 2.046875 6.109375 L 2.796875 5.859375 L 1.765625 5.28125 Z M 0.609375 1.84375 "/></g></g></g><g fill="#4a5fc1" fill-opacity="1"><g transform="translate(293.18569, 167.75145)"><g><path d="M -0.046875 0.84375 L 8.78125 1.265625 L 8.6875 3.5 L 5.421875 3.34375 L 5.265625 6.359375 L 8.53125 6.515625 L 8.421875 8.75 L -0.40625 8.328125 L -0.296875 6.09375 L 3.5 6.28125 L 3.65625 3.265625 L -0.140625 3.078125 Z M -0.046875 0.84375 "/></g></g></g><g fill="#4a5fc1" fill-opacity="1"><g transform="translate(292.567013, 177.010187)"><g><path d="M -0.9375 2.359375 L 5.578125 4.9375 L 6.5 2.640625 L 8.203125 3.328125 L 5.546875 10 L 3.84375 9.3125 L 4.75 7.015625 L -1.765625 4.4375 Z M -0.9375 2.359375 "/></g></g></g><g fill="#4a5fc1" fill-opacity="1"><g transform="translate(289.373379, 184.206036)"><g/></g></g><g fill="#4a5fc1" fill-opacity="1"><g transform="translate(288.076239, 187.038023)"><g><path d="M -1.796875 1.484375 L 5.515625 6.90625 L 4.625 7.65625 L -1.671875 2.75 L -1.875 2.921875 L 1.828125 9.96875 L 1.0625 10.609375 L -5.171875 5.65625 L -5.375 5.828125 L -1.75 12.9375 L -2.640625 13.671875 L -6.609375 5.46875 L -5.28125 4.375 L -0.03125 8.515625 L -3.109375 2.578125 Z M -1.796875 1.484375 "/></g></g></g><g fill="#4a5fc1" fill-opacity="1"><g transform="translate(279.587444, 193.750132)"><g><path d="M -0.15625 0.046875 L -0.203125 9.390625 L -1.796875 9.921875 L -7.4375 2.484375 L -6.359375 2.125 L -4.890625 4.046875 L -1.21875 2.828125 L -1.25 0.421875 Z M -1.234375 3.84375 L -4.296875 4.875 L -1.453125 8.71875 L -1.1875 8.625 Z M -1.234375 3.84375 "/></g></g></g><g fill="#4a5fc1" fill-opacity="1"><g transform="translate(271.806778, 196.285807)"><g><path d="M -3.25 0.03125 L -3.21875 3.578125 L -0.09375 8.84375 L -1.34375 8.859375 L -3.640625 4.84375 L -3.875 4.84375 L -6.125 8.890625 L -7.359375 8.90625 L -4.3125 3.578125 L -4.34375 0.03125 Z M -3.25 0.03125 "/></g></g></g><g fill="#000000" fill-opacity="1"><g transform="translate(263.672388, 196.010742)"><g/></g></g></svg>